<?xml version="1.0" encoding="utf-8" standalone="no"?><!DOCTYPE svg PUBLIC "-//W3C//DTD SVG 20010904//EN" "http://www.w3.org/TR/2001/REC-SVG-20010904/DTD/svg10.dtd"><svg xmlns="http://www.w3.org/2000/svg" width="250" height="589" xmlns:xlink="http://www.w3.org/1999/xlink"><source><![CDATA[Created with Raphaël 2.1.2OpenGL SetupHLAPI SetupMap Haptic to Graphic WorkspaceProcess EventsRender GraphicsRender HapticsDraw 3D Cursor]]></source><desc style="-webkit-tap-highlight-color: rgba(0, 0, 0, 0);">Created with Raphaël 2.1.2</desc><defs style="-webkit-tap-highlight-color: rgba(0, 0, 0, 0);"><path stroke-linecap="round" d="M5,0 0,2.5 5,5z" id="raphael-marker-block" style="-webkit-tap-highlight-color: rgba(0, 0, 0, 0);"></path><marker id="raphael-marker-endblock33" markerHeight="3" markerWidth="3" orient="auto" refX="1.5" refY="1.5" style="-webkit-tap-highlight-color: rgba(0, 0, 0, 0);"><use xmlns:xlink="http://www.w3.org/1999/xlink" xlink:href="#raphael-marker-block" transform="rotate(180 1.5 1.5) scale(0.6,0.6)" stroke-width="1.6667" fill="black" stroke="none" style="-webkit-tap-highlight-color: rgba(0, 0, 0, 0);"></use></marker></defs><rect x="0" y="0" width="118" height="37" r="0" rx="0" ry="0" fill="#ffffff" stroke="#000000" style="-webkit-tap-highlight-color: rgba(0, 0, 0, 0);" stroke-width="2" class="flowchart" id="op1" transform="matrix(1,0,0,1,67.3594,4)"></rect><text x="10" y="18.5" text-anchor="start" font="10px &quot;Arial&quot;" stroke="none" fill="#000000" style="-webkit-tap-highlight-color: rgba(0, 0, 0, 0); text-anchor: start; font-style: normal; font-variant: normal; font-weight: normal; font-stretch: normal; font-size: 15px; line-height: normal; font-family: Arial;" id="op1t" class="flowchartt" font-size="15px" transform="matrix(1,0,0,1,67.3594,4)"><tspan style="-webkit-tap-highlight-color: rgba(0, 0, 0, 0);" dy="5.5">OpenGL Setup</tspan></text><rect x="0" y="0" width="105" height="37" r="0" rx="0" ry="0" fill="#ffffff" stroke="#000000" style="-webkit-tap-highlight-color: rgba(0, 0, 0, 0);" stroke-width="2" class="flowchart" id="op2" transform="matrix(1,0,0,1,73.8594,95)"></rect><text x="10" y="18.5" text-anchor="start" font="10px &quot;Arial&quot;" stroke="none" fill="#000000" style="-webkit-tap-highlight-color: rgba(0, 0, 0, 0); text-anchor: start; font-style: normal; font-variant: normal; font-weight: normal; font-stretch: normal; font-size: 15px; line-height: normal; font-family: Arial;" id="op2t" class="flowchartt" font-size="15px" transform="matrix(1,0,0,1,73.8594,95)"><tspan style="-webkit-tap-highlight-color: rgba(0, 0, 0, 0);" dy="5.5">HLAPI Setup</tspan></text><rect x="0" y="0" width="244.71875" height="37" r="0" rx="0" ry="0" fill="#ffffff" stroke="#000000" style="-webkit-tap-highlight-color: rgba(0, 0, 0, 0);" stroke-width="2" class="flowchart" id="op3" transform="matrix(1,0,0,1,4,186)"></rect><text x="10" y="18.5" text-anchor="start" font="10px &quot;Arial&quot;" stroke="none" fill="#000000" style="-webkit-tap-highlight-color: rgba(0, 0, 0, 0); text-anchor: start; font-style: normal; font-variant: normal; font-weight: normal; font-stretch: normal; font-size: 15px; line-height: normal; font-family: Arial;" id="op3t" class="flowchartt" font-size="15px" transform="matrix(1,0,0,1,4,186)"><tspan style="-webkit-tap-highlight-color: rgba(0, 0, 0, 0);" dy="5.5">Map Haptic to Graphic Workspace</tspan></text><rect x="0" y="0" width="125" height="37" r="0" rx="0" ry="0" fill="#ffffff" stroke="#000000" style="-webkit-tap-highlight-color: rgba(0, 0, 0, 0);" stroke-width="2" class="flowchart" id="op4" transform="matrix(1,0,0,1,63.8594,277)"></rect><text x="10" y="18.5" text-anchor="start" font="10px &quot;Arial&quot;" stroke="none" fill="#000000" style="-webkit-tap-highlight-color: rgba(0, 0, 0, 0); text-anchor: start; font-style: normal; font-variant: normal; font-weight: normal; font-stretch: normal; font-size: 15px; line-height: normal; font-family: Arial;" id="op4t" class="flowchartt" font-size="15px" transform="matrix(1,0,0,1,63.8594,277)"><tspan style="-webkit-tap-highlight-color: rgba(0, 0, 0, 0);" dy="5.5">Process Events</tspan></text><rect x="0" y="0" width="132" height="37" r="0" rx="0" ry="0" fill="#ffffff" stroke="#000000" style="-webkit-tap-highlight-color: rgba(0, 0, 0, 0);" stroke-width="2" class="flowchart" id="op5" transform="matrix(1,0,0,1,60.3594,368)"></rect><text x="10" y="18.5" text-anchor="start" font="10px &quot;Arial&quot;" stroke="none" fill="#000000" style="-webkit-tap-highlight-color: rgba(0, 0, 0, 0); text-anchor: start; font-style: normal; font-variant: normal; font-weight: normal; font-stretch: normal; font-size: 15px; line-height: normal; font-family: Arial;" id="op5t" class="flowchartt" font-size="15px" transform="matrix(1,0,0,1,60.3594,368)"><tspan style="-webkit-tap-highlight-color: rgba(0, 0, 0, 0);" dy="5.5">Render Graphics</tspan></text><rect x="0" y="0" width="122" height="37" r="0" rx="0" ry="0" fill="#ffffff" stroke="#000000" style="-webkit-tap-highlight-color: rgba(0, 0, 0, 0);" stroke-width="2" class="flowchart" id="op6" transform="matrix(1,0,0,1,65.3594,459)"></rect><text x="10" y="18.5" text-anchor="start" font="10px &quot;Arial&quot;" stroke="none" fill="#000000" style="-webkit-tap-highlight-color: rgba(0, 0, 0, 0); text-anchor: start; font-style: normal; font-variant: normal; font-weight: normal; font-stretch: normal; font-size: 15px; line-height: normal; font-family: Arial;" id="op6t" class="flowchartt" font-size="15px" transform="matrix(1,0,0,1,65.3594,459)"><tspan style="-webkit-tap-highlight-color: rgba(0, 0, 0, 0);" dy="5.5">Render Haptics</tspan></text><rect x="0" y="0" width="127" height="37" r="0" rx="0" ry="0" fill="#ffffff" stroke="#000000" style="-webkit-tap-highlight-color: rgba(0, 0, 0, 0);" stroke-width="2" class="flowchart" id="op7" transform="matrix(1,0,0,1,62.8594,550)"></rect><text x="10" y="18.5" text-anchor="start" font="10px &quot;Arial&quot;" stroke="none" fill="#000000" style="-webkit-tap-highlight-color: rgba(0, 0, 0, 0); text-anchor: start; font-style: normal; font-variant: normal; font-weight: normal; font-stretch: normal; font-size: 15px; line-height: normal; font-family: Arial;" id="op7t" class="flowchartt" font-size="15px" transform="matrix(1,0,0,1,62.8594,550)"><tspan style="-webkit-tap-highlight-color: rgba(0, 0, 0, 0);" dy="5.5">Draw 3D Cursor</tspan></text><path fill="none" stroke="#000000" d="M126.359375,41C126.359375,41,126.359375,80.65409994125366,126.359375,92.00043908460066" stroke-width="2" marker-end="url(#raphael-marker-endblock33)" style="-webkit-tap-highlight-color: rgba(0, 0, 0, 0);"></path><path fill="none" stroke="#000000" d="M126.359375,132C126.359375,132,126.359375,171.65409994125366,126.359375,183.00043908460066" stroke-width="2" marker-end="url(#raphael-marker-endblock33)" style="-webkit-tap-highlight-color: rgba(0, 0, 0, 0);"></path><path fill="none" stroke="#000000" d="M126.359375,223C126.359375,223,126.359375,262.65409994125366,126.359375,274.00043908460066" stroke-width="2" marker-end="url(#raphael-marker-endblock33)" style="-webkit-tap-highlight-color: rgba(0, 0, 0, 0);"></path><path fill="none" stroke="#000000" d="M126.359375,314C126.359375,314,126.359375,353.65409994125366,126.359375,365.00043908460066" stroke-width="2" marker-end="url(#raphael-marker-endblock33)" style="-webkit-tap-highlight-color: rgba(0, 0, 0, 0);"></path><path fill="none" stroke="#000000" d="M126.359375,405C126.359375,405,126.359375,444.65409994125366,126.359375,456.00043908460066" stroke-width="2" marker-end="url(#raphael-marker-endblock33)" style="-webkit-tap-highlight-color: rgba(0, 0, 0, 0);"></path><path fill="none" stroke="#000000" d="M126.359375,496C126.359375,496,126.359375,535.6540999412537,126.359375,547.0004390846007" stroke-width="2" marker-end="url(#raphael-marker-endblock33)" style="-webkit-tap-highlight-color: rgba(0, 0, 0, 0);"></path><path fill="none" stroke="#000000" d="M189.859375,568.5C189.859375,568.5,214.859375,568.5,214.859375,568.5C214.859375,568.5,214.859375,252,214.859375,252C214.859375,252,126.359375,252,126.359375,252C126.359375,252,126.359375,267.37344455718994,126.359375,274.00924777425826" stroke-width="2" marker-end="url(#raphael-marker-endblock33)" style="-webkit-tap-highlight-color: rgba(0, 0, 0, 0);"></path></svg>